# xmcd
#
# Track frame offsets: 
#        150
#        1125
#        15045
#        28560
#        39455
#        40002
#        49935
#        62445
#        77630
#        89427
#        93180
#        106140
#        119902
#        130537
#        136840
#        150455
#        160615
#        172910
#        183715
#        192272
#        205780
#        209732
#        223400
#        233042
#        243320
#        254650
#        266767
#        268667
#        279755
#        290827
#        300945
#
# Disc length: 4184 seconds
#
# Revision: 5
# Processed by: cddbd v1.5.2PL0 Copyright (c) Steve Scherf et al.
# Submitted via: ExactAudioCopyFreeDBPlugin 1.0
#
DISCID=a510561f
DTITLE=Various Artist - Sam Cooke's SAR Records Story - Disc 1 of 2
DYEAR=1994
DGENRE=Gospel
TTITLE0=Sam Cooke and Paul Foster - Wade In The Water (chatter)
TTITLE1=The Soul Stirrers - Wade In The Water
TTITLE2=The Soul Stirrers - I'm A Pilgrim
TTITLE3=The Soul Stirrers - Praying Ground
TTITLE4=R. H. Harris and His Gospel Paraders - Somebody (chatter)
TTITLE5=R. H. Harris and His Gospel Paraders - Somebody
TTITLE6=R. H. Harris and His Gospel Paraders - Sometimes
TTITLE7=The Soul Stirrers - Amazing Grace
TTITLE8=R. H. Harris and His Gospel Paraders - Pass Me Not
TTITLE9=The Soul Stirrers - Oh Mary, Don't You Weep (chatter)
TTITLE10=The Soul Stirrers - Oh Mary, Don't You Weep
TTITLE11=The Soul Stirrers - Since I Met The Savior
TTITLE12=The Soul Stirrers - God Is Standing By
TTITLE13=Sam Cooke, S.R. Crain and The Soul Stirrers - Lead Me To The Ca
TTITLE13=lvary (rehearsal)
TTITLE14=The Soul Stirrers - Listen To The Angels Sing
TTITLE15=The Soul Stirrers - Don't Leave Me Alone
TTITLE16=The Soul Stirrers - Stand By Me Father
TTITLE17=The Soul Stirrers - Jesus Be A Fence Around Me
TTITLE18=The Soul Stirrers - Lead Me Jesus
TTITLE19=The Soul Stirrers - Free At Last
TTITLE20=The Soul Stirrers - Looking Back (chatter)
TTITLE21=The Soul Stirrers - Looking Back
TTITLE22=R. H. Harris and His Gospel Paraders - Born Again
TTITLE23=R. H. Harris and His Gospel Paraders - Wait On Jesus
TTITLE24=The Soul Stirrers - Times Bring About A Change
TTITLE25=The Soul Stirrers - Must Jesus Bear The Cross Alone
TTITLE26=The Womack Brothers - Yield Not To Temptation (chatter)
TTITLE27=The Womack Brothers - Yield Not To Temptation
TTITLE28=The Womack Brothers - Couldn't Hear Nobody Pray
TTITLE29=The Womack Brothers - Somewhere There's A God
TTITLE30=Sam Cooke - That's Heaven To Me
EXTD=Originally Released September 1994\nRepackaged In CD-Sized Slipca
EXTD=se August 14, 2001\n\nAMG EXPERT REVIEW: Sam Cooke's SAR Records 
EXTD=Story is a double-disc set presenting material recorded for the l
EXTD=egendary soul singer's own SAR label from 1959-1965, much of it p
EXTD=roduced by Cooke himself and including a few of his rough, unrele
EXTD=ased demos. The first disc covers the label's religious side, wit
EXTD=h a multitude of cuts from Cooke's former group the Soul Stirrers
EXTD=(now with Jimmie Outler
EXTT0=
EXTT1=
EXTT2=
EXTT3=
EXTT4=
EXTT5=
EXTT6=
EXTT7=
EXTT8=
EXTT9=
EXTT10=
EXTT11=
EXTT12=
EXTT13=
EXTT14=
EXTT15=
EXTT16=
EXTT17=
EXTT18=
EXTT19=
EXTT20=
EXTT21=
EXTT22=
EXTT23=
EXTT24=
EXTT25=
EXTT26=
EXTT27=
EXTT28=
EXTT29=
EXTT30=
PLAYORDER=
